HIERARCHY
ROOT Hips
{
	OFFSET 49.685200 -5.256404 86.737900
	CHANNELS 6 Xposition Yposition Zposition Xrotation Yrotation Zrotation
	JOINT spine
	{
		OFFSET 0.000000 -0.393701 6.846367
		CHANNELS 3 Xrotation Yrotation Zrotation
		JOINT spine1
		{
			OFFSET 0.000000 -0.000001 9.496208
			CHANNELS 3 Xrotation Yrotation Zrotation
			JOINT spine2
			{
				OFFSET 0.000000 -0.000001 9.099091
				CHANNELS 3 Xrotation Yrotation Zrotation
				JOINT Neck
				{
					OFFSET 0.000000 -1.113784 23.361206
					CHANNELS 3 Xrotation Yrotation Zrotation
					JOINT Head
					{
						OFFSET 0.000000 -0.000001 7.058014
						CHANNELS 3 Xrotation Yrotation Zrotation
						End Site
						{
							OFFSET 0.000000 5.634188 17.084396
						}
					}
				}
				JOINT RightShoulder
				{
					OFFSET -3.831360 0.533489 9.826309
					CHANNELS 3 Xrotation Yrotation Zrotation
					JOINT RightArm
					{
						OFFSET 0.000000 -0.000002 12.888107
						CHANNELS 3 Xrotation Yrotation Zrotation
						JOINT RightArmRoll
						{
							OFFSET 0.000000 -0.000001 6.506165
							CHANNELS 3 Xrotation Yrotation Zrotation
							JOINT RightForeArm
							{
								OFFSET 0.000000 -0.000003 18.950104
								CHANNELS 3 Xrotation Yrotation Zrotation
								JOINT RightForeArmRoll
								{
									OFFSET 0.000000 -0.000001 7.300919
									CHANNELS 3 Xrotation Yrotation Zrotation
									JOINT RightHand
									{
										OFFSET 0.000000 -0.000002 14.651398
										CHANNELS 3 Xrotation Yrotation Zrotation
										End Site
										{
											OFFSET 0.000000 0.000000 0.100006
										}
									}
								}
							}
						}
					}
				}
				JOINT LeftShoulder
				{
					OFFSET 3.831360 0.533489 9.826309
					CHANNELS 3 Xrotation Yrotation Zrotation
					JOINT LeftArm
					{
						OFFSET 0.000000 -0.000002 12.888107
						CHANNELS 3 Xrotation Yrotation Zrotation
						JOINT LeftArmRoll
						{
							OFFSET 0.000000 -0.000001 6.506165
							CHANNELS 3 Xrotation Yrotation Zrotation
							JOINT LeftForeArm
							{
								OFFSET 0.000000 -0.000003 18.950104
								CHANNELS 3 Xrotation Yrotation Zrotation
								JOINT LeftForeArmRoll
								{
									OFFSET 0.000000 -0.000001 7.300919
									CHANNELS 3 Xrotation Yrotation Zrotation
									JOINT LeftHand
									{
										OFFSET 0.000000 -0.000002 14.651398
										CHANNELS 3 Xrotation Yrotation Zrotation
										End Site
										{
											OFFSET 0.000000 0.000000 0.100006
										}
									}
								}
							}
						}
					}
				}
			}
		}
	}
	JOINT RightUpLeg
	{
		OFFSET -6.068371 0.933477 -1.112778
		CHANNELS 3 Xrotation Yrotation Zrotation
		JOINT RightUpLegRoll
		{
			OFFSET 0.000000 -0.000003 17.179596
			CHANNELS 3 Xrotation Yrotation Zrotation
			JOINT RightLeg
			{
				OFFSET 0.000000 0.000003 -21.274300
				CHANNELS 3 Xrotation Yrotation Zrotation
				JOINT RightLegRoll
				{
					OFFSET 0.000000 -0.000003 21.343903
					CHANNELS 3 Xrotation Yrotation Zrotation
					JOINT RightFoot
					{
						OFFSET 0.000000 -0.000003 17.765198
						CHANNELS 3 Xrotation Yrotation Zrotation
						JOINT RightToeBase
						{
							OFFSET 0.000000 -0.000002 14.850807
							CHANNELS 3 Xrotation Yrotation Zrotation
							End Site
							{
								OFFSET 0.006294 0.829004 7.192123
							}
						}
					}
				}
			}
		}
	}
	JOINT LeftUpLeg
	{
		OFFSET 6.068371 0.933477 -1.112778
		CHANNELS 3 Xrotation Yrotation Zrotation
		JOINT LeftUpLegRoll
		{
			OFFSET 0.000000 -0.000003 17.179703
			CHANNELS 3 Xrotation Yrotation Zrotation
			JOINT LeftLeg
			{
				OFFSET 0.000000 -0.000003 21.274200
				CHANNELS 3 Xrotation Yrotation Zrotation
				JOINT LeftLegRoll
				{
					OFFSET 0.000000 -0.000004 21.541199
					CHANNELS 3 Xrotation Yrotation Zrotation
					JOINT LeftFoot
					{
						OFFSET 0.000000 -0.000003 17.567902
						CHANNELS 3 Xrotation Yrotation Zrotation
						JOINT LeftToeBase
						{
							OFFSET 0.000000 -0.000002 14.850800
							CHANNELS 3 Xrotation Yrotation Zrotation
							End Site
							{
								OFFSET -0.028210 0.829004 7.192139
							}
						}
					}
				}
			}
		}
	}
}
MOTION
Frames: 13
Frame Time: 0.041667
53.327095 -3.568923 86.077995 2.364984 -2.082735 42.369497 -0.630122 -3.387416 1.435402 2.831282 -6.774487 2.864543 4.480273 -6.739715 2.945749 -11.110144 41.142751 18.328022 16.201371 -22.380298 11.323629 5.759118 -15.553749 16.316304 116.229616 13.023032 101.111484 -0.000051 -0.000014 -0.000008 26.900036 -20.241136 3.175903 -0.000014 0.000008 -2.999989 -4.999506 -7.998747 -0.000205 -98.473733 76.380605 105.999598 7.305425 72.775857 12.722808 -0.000002 -0.000002 0.000004 62.418107 15.513322 -11.700152 0.000008 0.000004 2.999992 -4.999987 8.000233 0.000337 -14.911992 -174.023699 1.963727 -179.999991 0.000005 -1.010998 149.672299 -5.090258 -1.826231 0.000005 0.000002 0.467113 80.343638 7.267430 -0.277916 25.456856 -7.355621 -0.000003 -20.136328 185.902723 5.643592 -0.000003 -0.000004 -1.396979 -24.273370 1.272665 0.784639 -0.000003 -0.000002 -1.023151 72.693539 -7.187849 -1.006098 25.456964 7.355626 -0.000003 
53.321609 -3.569859 86.082901 2.361409 -2.075038 42.333451 -0.627708 -3.382928 1.436279 2.835994 -6.765451 2.864644 4.484972 -6.730675 2.945743 -11.036234 41.129063 18.321585 16.186249 -22.345688 11.339233 5.757424 -15.587345 16.303004 116.237949 12.996829 101.058673 -0.000051 -0.000013 -0.000008 26.883655 -20.265806 3.188811 -0.000013 0.000011 -2.999989 -4.999501 -7.998750 -0.000204 -98.514673 76.382559 106.040190 7.202745 72.783575 12.882838 0.000002 -0.000000 0.000003 62.475761 15.479857 -11.691510 0.000012 0.000005 2.999992 -4.999984 8.000233 0.000336 -14.922232 -174.042359 1.951139 -179.999991 0.000005 -1.011001 149.687789 -5.090198 -1.824358 0.000003 0.000002 0.467533 80.323981 7.269842 -0.283256 25.456863 -7.355623 -0.000004 -20.141784 185.884650 5.637824 -0.000006 -0.000004 -1.395938 -24.270650 1.270814 0.784545 -0.000004 -0.000002 -1.023058 72.693061 -7.184797 -1.014762 25.456964 7.355621 -0.000005 
53.290001 -3.567883 86.082893 2.357617 -2.067548 42.297610 -0.625374 -3.378439 1.437122 2.840544 -6.756428 2.864683 4.489509 -6.721650 2.945683 -10.961581 41.113808 18.314242 16.170794 -22.310900 11.354685 5.755716 -15.622239 16.289422 116.245913 12.969922 101.006053 -0.000051 -0.000013 -0.000010 26.866616 -20.290957 3.201944 -0.000013 0.000007 -2.999993 -4.999500 -7.998753 -0.000207 -98.553168 76.384499 106.078275 7.103159 72.790842 13.041018 -0.000001 -0.000001 0.000001 62.534412 15.445653 -11.682548 0.000010 0.000006 2.999991 -4.999987 8.000233 0.000337 -14.932079 -174.061005 1.938470 -179.999991 0.000006 -1.011994 149.703512 -5.089271 -1.822951 0.000001 0.000002 0.467967 80.304228 7.272300 -0.288584 25.456861 -7.355617 -0.000004 -20.146937 185.866591 5.631715 -0.000005 -0.000004 -1.394897 -24.267739 1.269120 0.784467 -0.000004 -0.000002 -1.022954 72.692604 -7.181765 -1.023525 25.456962 7.355627 -0.000004 
53.269104 -3.567199 86.089790 2.353662 -2.060402 42.261570 -0.623106 -3.373932 1.437926 2.844961 -6.747341 2.864705 4.493917 -6.712569 2.945590 -10.886415 41.097354 18.306338 16.155434 -22.275914 11.370070 5.753997 -15.658134 16.275434 116.253781 12.941929 100.951719 -0.000049 -0.000013 -0.000008 26.849332 -20.316626 3.215341 -0.000014 0.000009 -2.999991 -4.999500 -7.998750 -0.000207 -98.588774 76.386534 106.113416 7.008868 72.797652 13.194366 0.000001 0.000002 0.000006 62.592871 15.411362 -11.673542 0.000009 0.000007 2.999996 -4.999989 8.000234 0.000338 -14.941515 -174.079624 1.925803 -179.999991 0.000006 -1.011998 149.719236 -5.088356 -1.821551 0.000004 0.000001 0.468422 80.284448 7.274718 -0.293907 25.456854 -7.355621 -0.000001 -20.151551 185.847617 5.625718 -0.000006 -0.000005 -1.393861 -24.264614 1.267592 0.784425 -0.000004 -0.000002 -1.022828 72.692358 -7.178755 -1.032083 25.456964 7.355623 -0.000004 
53.265900 -3.560802 86.089989 2.349609 -2.053710 42.225551 -0.620896 -3.369374 1.438709 2.849277 -6.738168 2.864752 4.498212 -6.703396 2.945528 -10.810913 41.079674 18.297877 16.140297 -22.240803 11.385402 5.752261 -15.694820 16.261220 116.261199 12.913194 100.896620 -0.000051 -0.000013 -0.000010 26.831982 -20.342484 3.228917 -0.000015 0.000009 -2.999986 -4.999501 -7.998748 -0.000203 -98.622317 76.388542 106.146481 6.921876 72.803874 13.340550 -0.000002 -0.000000 0.000004 62.650013 15.377660 -11.664670 0.000011 0.000005 2.999990 -4.999987 8.000232 0.000337 -14.950587 -174.097287 1.912973 -179.999991 0.000005 -1.011997 149.735177 -5.087438 -1.819129 0.000002 0.000002 0.468887 80.264640 7.277065 -0.299039 25.456858 -7.355624 -0.000003 -20.155506 185.829599 5.619244 -0.000004 -0.000005 -1.392811 -24.261305 1.266239 0.784417 -0.000004 -0.000002 -1.022677 72.692221 -7.175734 -1.040729 25.456962 7.355623 -0.000004 
53.262405 -3.565643 86.088493 2.345509 -2.047604 42.189447 -0.618721 -3.364735 1.439443 2.853502 -6.728845 2.864855 4.502436 -6.694078 2.945517 -10.735300 41.060963 18.288865 16.125493 -22.205652 11.400680 5.750495 -15.732004 16.246839 116.268507 12.882840 100.840920 -0.000051 -0.000012 -0.000009 26.815106 -20.368541 3.242806 -0.000014 0.000009 -2.999988 -4.999499 -7.998753 -0.000203 -98.653880 76.390728 106.177497 6.844475 72.809735 13.476668 -0.000003 -0.000003 -0.000000 62.704681 15.345243 -11.656481 0.000014 0.000001 2.999990 -4.999984 8.000231 0.000339 -14.959250 -174.114923 1.900359 -179.999991 0.000007 -1.012994 149.751105 -5.086532 -1.817714 0.000004 0.000002 0.469360 80.244696 7.279393 -0.304067 25.456860 -7.355619 -0.000005 -20.158754 185.811635 5.612739 -0.000004 -0.000005 -1.391769 -24.257492 1.265074 0.784454 -0.000003 -0.000002 -1.022510 72.692208 -7.172731 -1.049373 25.456959 7.355623 -0.000002 
53.251503 -3.562814 86.093094 2.341408 -2.042186 42.153083 -0.616570 -3.360007 1.440162 2.857685 -6.719332 2.865058 4.506598 -6.684559 2.945600 -10.659781 41.041483 18.279644 16.111255 -22.170550 11.415956 5.748715 -15.769491 16.232276 116.275556 12.851315 100.784530 -0.000049 -0.000011 -0.000010 26.798676 -20.394702 3.256855 -0.000013 0.000009 -2.999987 -4.999500 -7.998747 -0.000205 -98.683830 76.392961 106.206860 6.778621 72.815076 13.600080 -0.000002 -0.000000 0.000002 62.755682 15.314696 -11.648980 0.000013 0.000003 2.999990 -4.999981 8.000231 0.000338 -14.967514 -174.132545 1.888041 -179.999991 0.000006 -1.012993 149.766979 -5.084748 -1.815792 0.000004 0.000002 0.469854 80.224718 7.281645 -0.308791 25.456861 -7.355620 -0.000003 -20.161101 185.793686 5.606308 -0.000002 -0.000004 -1.390724 -24.253179 1.264086 0.784542 -0.000003 -0.000001 -1.022298 72.692412 -7.169757 -1.057905 25.456964 7.355624 -0.000004 
53.239807 -3.562946 86.087189 2.337380 -2.037574 42.116552 -0.614432 -3.355158 1.440846 2.861857 -6.709578 2.865395 4.510755 -6.674801 2.945821 -10.584565 41.021334 18.270083 16.097796 -22.135540 11.431250 5.746907 -15.806972 16.217710 116.282359 12.818091 100.726569 -0.000051 -0.000014 -0.000012 26.783342 -20.420901 3.271238 -0.000014 0.000008 -2.999989 -4.999500 -7.998751 -0.000206 -98.712640 76.395338 106.235096 6.726554 72.820035 13.708103 -0.000001 -0.000001 0.000006 62.801923 15.286614 -11.642657 0.000012 0.000002 2.999991 -4.999985 8.000229 0.000336 -14.975405 -174.149197 1.875851 -179.999991 0.000005 -1.014005 149.782961 -5.082976 -1.813889 0.000003 0.000001 0.470351 80.204494 7.283904 -0.313196 25.456858 -7.355621 -0.000004 -20.162549 185.775777 5.600041 -0.000002 -0.000004 -1.389678 -24.248268 1.263296 0.784693 -0.000004 -0.000002 -1.022056 72.692740 -7.166795 -1.066533 25.456965 7.355625 -0.000003 
53.215103 -3.571320 86.090584 2.333450 -2.033893 42.079662 -0.612284 -3.350159 1.441506 2.866027 -6.699537 2.865913 4.514913 -6.664758 2.946226 -10.509875 41.000775 18.260480 16.085353 -22.100725 11.446631 5.745073 -15.844265 16.203212 116.288765 12.783651 100.668949 -0.000051 -0.000012 -0.000015 26.769291 -20.447063 3.285912 -0.000014 0.000007 -2.999991 -4.999499 -7.998751 -0.000207 -98.740254 76.397852 106.262089 6.690364 72.824659 13.798177 -0.000002 -0.000000 0.000005 62.842098 15.261820 -11.637948 0.000010 0.000003 2.999992 -4.999983 8.000230 0.000336 -14.982816 -174.164865 1.863889 -179.999991 0.000005 -1.015008 149.798739 -5.081180 -1.811981 0.000003 0.000002 0.470857 80.184297 7.286004 -0.317425 25.456858 -7.355625 -0.000003 -20.162824 185.758838 5.593715 -0.000004 -0.000004 -1.388639 -24.242565 1.262706 0.784909 -0.000004 -0.000002 -1.021779 72.693382 -7.163811 -1.075136 25.456960 7.355625 -0.000004 
53.203308 -3.567859 86.096191 2.329695 -2.031262 42.042314 -0.610121 -3.345002 1.442131 2.870243 -6.689166 2.866644 4.519114 -6.654376 2.946825 -10.435890 40.979906 18.250747 16.073930 -22.066193 11.462049 5.743205 -15.881151 16.188769 116.294885 12.746993 100.609889 -0.000052 -0.000011 -0.000012 26.756826 -20.472971 3.300839 -0.000013 0.000008 -2.999984 -4.999500 -7.998750 -0.000204 -98.767623 76.400577 106.288822 6.672156 72.828873 13.867446 -0.000003 -0.000003 0.000003 62.875197 15.240821 -11.634992 0.000009 0.000002 2.999990 -4.999985 8.000231 0.000339 -14.989986 -174.178594 1.851983 -179.999991 0.000006 -1.015003 149.814558 -5.078525 -1.809575 0.000004 0.000001 0.471368 80.163929 7.288031 -0.321141 25.456858 -7.355619 -0.000004 -20.162034 185.742869 5.587404 -0.000005 -0.000004 -1.387598 -24.236057 1.262323 0.785206 -0.000004 -0.000002 -1.021450 72.694250 -7.160846 -1.083726 25.456967 7.355628 -0.000008 
53.205296 -3.570781 86.097702 2.326133 -2.029636 42.004830 -0.607934 -3.339635 1.442640 2.874500 -6.678373 2.867390 4.523356 -6.643579 2.947445 -10.362410 40.957847 18.241045 16.063391 -22.031672 11.477753 5.741761 -15.918234 16.174950 116.300349 12.709012 100.549223 -0.000050 -0.000012 -0.000009 26.745062 -20.499110 3.316071 -0.000015 0.000008 -2.999990 -4.999501 -7.998753 -0.000209 -98.793010 76.403377 106.313500 6.670494 72.832855 13.917504 -0.000004 -0.000003 -0.000000 62.902436 15.223025 -11.633407 0.000012 0.000004 2.999992 -4.999985 8.000230 0.000341 -14.996751 -174.192309 1.840643 -179.999991 0.000006 -1.015999 149.830226 -5.076736 -1.807689 0.000002 0.000003 0.471883 80.143404 7.290007 -0.324652 25.456860 -7.355622 -0.000004 -20.159937 185.726982 5.581422 -0.000006 -0.000003 -1.386557 -24.228655 1.262158 0.785583 -0.000003 -0.000002 -1.021055 72.695247 -7.157929 -1.092315 25.456960 7.355621 -0.000004 
53.192501 -3.568494 86.100304 2.322728 -2.028862 41.967278 -0.605739 -3.334075 1.442973 2.878765 -6.667173 2.867944 4.527601 -6.632373 2.947869 -10.289124 40.934024 18.231180 16.053067 -21.997025 11.493791 5.741077 -15.956288 16.162034 116.304939 12.670134 100.486877 -0.000050 -0.000012 -0.000012 26.733203 -20.525946 3.331721 -0.000015 0.000007 -2.999992 -4.999501 -7.998751 -0.000207 -98.815420 76.406184 106.335192 6.681945 72.836707 13.952220 -0.000001 -0.000001 -0.000000 62.925918 15.207191 -11.632596 0.000009 0.000002 2.999990 -4.999987 8.000230 0.000337 -15.003141 -174.205054 1.829477 -179.999991 0.000006 -1.016999 149.845949 -5.074071 -1.806304 0.000002 0.000001 0.472418 80.122729 7.291944 -0.328057 25.456860 -7.355625 -0.000001 -20.156978 185.712051 5.575248 -0.000003 -0.000004 -1.385511 -24.220452 1.262213 0.786042 -0.000003 -0.000002 -1.020610 72.696347 -7.155009 -1.100903 25.456965 7.355623 -0.000003 
53.175098 -3.565224 86.100189 2.319426 -2.028857 41.929558 -0.603545 -3.328337 1.443152 2.883015 -6.655631 2.868374 4.531836 -6.620823 2.948150 -10.215899 40.908445 18.221090 16.043069 -21.962246 11.510125 5.740966 -15.995123 16.149658 116.308833 12.629941 100.422919 -0.000051 -0.000011 -0.000009 26.721129 -20.553371 3.347656 -0.000013 0.000008 -2.999990 -4.999502 -7.998752 -0.000205 -98.835481 76.409176 106.354515 6.705501 72.840341 13.973157 0.000000 -0.000002 0.000003 62.946211 15.193001 -11.632330 0.000009 0.000000 2.999989 -4.999984 8.000232 0.000338 -15.009230 -174.217772 1.818676 -179.999991 0.000005 -1.017995 149.861604 -5.070538 -1.803415 0.000003 0.000003 0.472963 80.101918 7.293834 -0.331356 25.456860 -7.355621 -0.000002 -20.153014 185.697148 5.569195 -0.000005 -0.000004 -1.384453 -24.211655 1.262474 0.786562 -0.000003 -0.000002 -1.020101 72.697651 -7.152047 -1.109667 25.456962 7.355623 -0.000002 
